<svg width="24" height="24" viewBox="0 0 24 24" fill="none" xmlns="http://www.w3.org/2000/svg">
<mask id="mask0_201_14" style="mask-type:alpha" maskUnits="userSpaceOnUse" x="0" y="0" width="24" height="24">
<rect width="24" height="24" fill="#D9D9D9"/>
</mask>
<g mask="url(#mask0_201_14)">
<path d="M11.25 21H7C6.45 21 5.97917 20.8042 5.5875 20.4125C5.19583 20.0208 5 19.55 5 19V6H4V4H9V3H15V4H20V6H19V10.3C18.7167 10.2167 18.3875 10.1458 18.0125 10.0875C17.6375 10.0292 17.3 10 17 10V6H7V19H10.3C10.4 19.35 10.5333 19.6958 10.7 20.0375C10.8667 20.3792 11.05 20.7 11.25 21ZM9 17H10C10 15.95 10.1667 15.0875 10.5 14.4125L11 13.4V8H9V17ZM13 11.25C13.2833 11.0667 13.6042 10.8833 13.9625 10.7C14.3208 10.5167 14.6667 10.3833 15 10.3V8H13V11.25ZM17 22C15.6167 22 14.4375 21.5125 13.4625 20.5375C12.4875 19.5625 12 18.3833 12 17C12 15.6167 12.4875 14.4375 13.4625 13.4625C14.4375 12.4875 15.6167 12 17 12C18.3833 12 19.5625 12.4875 20.5375 13.4625C21.5125 14.4375 22 15.6167 22 17C22 18.3833 21.5125 19.5625 20.5375 20.5375C19.5625 21.5125 18.3833 22 17 22ZM18.65 19.35L19.35 18.65L17.5 16.8V14H16.5V17.2L18.65 19.35Z" fill="#F3663A"/>
</g>
</svg>
