<svg width="25" height="25" viewBox="0 0 25 25" fill="none" xmlns="http://www.w3.org/2000/svg">
<mask id="mask0_201_8" style="mask-type:alpha" maskUnits="userSpaceOnUse" x="0" y="0" width="25" height="25">
<rect x="0.0456543" y="0.278399" width="24" height="24" fill="#D9D9D9"/>
</mask>
<g mask="url(#mask0_201_8)">
<path d="M2.04565 24.2784V20.2784H22.0457V24.2784H2.04565ZM4.04565 18.2784V14.5284L13.0957 5.4784L16.8457 9.2284L7.79565 18.2784H4.04565ZM6.04565 16.2784H6.94565L14.0457 9.2284L13.0957 8.2784L6.04565 15.3784V16.2784ZM17.9707 8.1284L14.2207 4.3784L16.0207 2.5784C16.204 2.3784 16.4373 2.28256 16.7207 2.2909C17.004 2.29923 17.2373 2.39506 17.4207 2.5784L19.7707 4.9284C19.954 5.11173 20.0457 5.3409 20.0457 5.6159C20.0457 5.8909 19.954 6.1284 19.7707 6.3284L17.9707 8.1284Z" fill="#F3CA3A"/>
</g>
</svg>
